<svg id="Expanded" xmlns="http://www.w3.org/2000/svg" viewBox="0 0 96 96"><path d="M79.38,94H16.62a2.73,2.73,0,0,1-2.14-1A2.28,2.28,0,0,1,14,91.07l1.18-5.57a3,3,0,0,1,3.06-2.68H77.76a3,3,0,0,1,3.06,2.68L82,91.07A2.28,2.28,0,0,1,81.52,93,2.73,2.73,0,0,1,79.38,94ZM18.24,84.82c-.58,0-1.06.37-1.06.8a.76.76,0,0,1,0,.21L16,91.49a.28.28,0,0,0,.07.26.75.75,0,0,0,.59.25H79.38a.75.75,0,0,0,.59-.25.28.28,0,0,0,.07-.26l-1.19-5.66a.76.76,0,0,1,0-.21c0-.43-.48-.8-1.06-.8Z"/><path d="M74,84.82H22.05a1,1,0,0,1-1-1V29A27,27,0,0,1,75,29V83.82A1,1,0,0,1,74,84.82Zm-50.9-2H73V29a24.95,24.95,0,0,0-49.9,0Z"/><path d="M48,30.64a8.56,8.56,0,1,1,8.55-8.56A8.56,8.56,0,0,1,48,30.64Zm0-15.11a6.56,6.56,0,1,0,6.55,6.55A6.56,6.56,0,0,0,48,15.53Z"/><path d="M38.3,59.59a7.42,7.42,0,0,1-7.42-7.41V43.82A15.2,15.2,0,0,1,46.06,28.64H48a1,1,0,0,1,0,2H46.06A13.19,13.19,0,0,0,32.88,43.82v8.36a5.42,5.42,0,0,0,5.42,5.41.64.64,0,0,0,.64-.64V43.47a1,1,0,0,1,2,0V57A2.64,2.64,0,0,1,38.3,59.59Z"/><path d="M57.7,59.59A2.64,2.64,0,0,1,55.06,57V43.47a1,1,0,0,1,2,0V57a.64.64,0,0,0,.64.64,5.42,5.42,0,0,0,5.42-5.41V43.82A13.19,13.19,0,0,0,49.94,30.64H48a1,1,0,0,1,0-2h1.94A15.2,15.2,0,0,1,65.12,43.82v8.36A7.42,7.42,0,0,1,57.7,59.59Z"/><path d="M48,84.87H40.45a1,1,0,0,1-1-.92L37.3,58.68a1,1,0,0,1,.91-1.08,1,1,0,0,1,1.08.91l2.08,24.36H47V62.28a1,1,0,0,1,2,0V83.87A1,1,0,0,1,48,84.87Z"/><path d="M55.55,84.87H48a1,1,0,0,1-1-1V62.28a1,1,0,0,1,2,0V82.87h5.63l2.08-24.36a1,1,0,0,1,1.08-.91,1,1,0,0,1,.91,1.08L56.55,84A1,1,0,0,1,55.55,84.87Z"/></svg>